<?xml version="1.0" standalone="no"?>
<!DOCTYPE svg PUBLIC "-//W3C//DTD SVG 20010904//EN"
 "http://www.w3.org/TR/2001/REC-SVG-20010904/DTD/svg10.dtd">
<svg version="1.0" xmlns="http://www.w3.org/2000/svg"
 width="500.000000pt" height="500.000000pt" viewBox="0 0 500.000000 500.000000"
 preserveAspectRatio="xMidYMid meet">
<metadata>
Created by potrace 1.16, written by Peter Selinger 2001-2019
</metadata>
<g transform="translate(0.000000,500.000000) scale(0.100000,-0.100000)"
fill="#000000" stroke="none">
<path d="M1018 2550 c-52 -9 -87 -36 -109 -83 -24 -54 -24 -91 1 -142 32 -66
76 -85 200 -85 99 0 101 0 98 23 -3 21 -8 22 -104 25 -94 2 -104 5 -128 28
-82 83 -4 218 106 184 44 -13 78 -58 78 -102 0 -21 -5 -28 -19 -28 -14 0 -17
6 -14 24 10 48 -58 90 -112 70 -26 -10 -45 -63 -34 -93 17 -43 38 -50 137 -51
l92 0 0 58 c0 120 -79 191 -192 172z"/>
<path d="M1836 2549 c-39 -11 -64 -36 -75 -75 -21 -77 29 -144 109 -144 57 0
110 50 110 104 0 83 -66 136 -144 115z"/>
<path d="M1300 2395 l0 -155 25 0 c24 0 25 2 25 65 l0 65 65 0 c63 0 65 1 65
25 0 24 -2 25 -65 25 l-65 0 0 40 0 40 75 0 c73 0 75 1 75 25 l0 25 -100 0
-100 0 0 -155z"/>
<path d="M1520 2528 c0 -13 11 -40 25 -60 14 -20 25 -39 25 -42 0 -4 -11 -6
-25 -6 -25 0 -25 -1 -25 -90 0 -89 0 -90 25 -90 24 0 25 2 25 65 0 57 2 65 19
65 13 0 32 -22 57 -65 33 -54 43 -65 67 -65 15 0 27 2 27 5 0 3 -18 34 -39 68
l-40 62 24 13 c50 26 59 84 21 129 -22 25 -31 28 -105 31 -80 4 -81 4 -81 -20z"/>
<path d="M2020 2395 l0 -155 25 0 c24 0 24 1 27 107 l3 106 74 -106 c59 -84
80 -107 98 -107 l23 0 0 155 0 155 -25 0 c-24 0 -24 -1 -27 -106 l-3 -106 -73
106 c-59 86 -78 106 -97 106 l-25 0 0 -155z"/>
<path d="M2290 2530 c0 -16 7 -20 30 -20 l30 0 0 -135 0 -135 25 0 24 0 3 133
3 132 33 3 c24 2 32 8 32 23 0 17 -8 19 -90 19 -83 0 -90 -1 -90 -20z"/>
<path d="M2480 2395 l0 -155 105 0 105 0 0 25 c0 25 -1 25 -80 25 l-80 0 0 40
0 40 65 0 c63 0 65 1 65 25 0 24 -2 25 -65 25 l-65 0 0 40 0 40 80 0 c79 0 80
0 80 25 l0 25 -105 0 -105 0 0 -155z"/>
<path d="M2710 2395 l0 -155 25 0 c24 0 24 0 27 111 l3 110 75 -108 c61 -87
80 -109 103 -111 l27 -3 0 155 0 156 -25 0 c-24 0 -24 -1 -27 -107 l-3 -108
-75 107 c-64 92 -79 107 -102 108 l-28 0 0 -155z"/>
<path d="M3010 2395 l0 -158 65 5 c36 3 78 14 97 25 89 51 91 202 3 259 -15
10 -54 19 -95 22 l-70 5 0 -158z m151 76 c31 -31 38 -76 19 -125 -10 -29 -57
-56 -95 -56 l-25 0 0 105 0 105 36 0 c26 0 43 -8 65 -29z"/>
<path d="M3320 2395 l0 -155 100 0 100 0 0 25 c0 24 -2 25 -75 25 l-75 0 0 40
0 40 65 0 c63 0 65 1 65 25 0 24 -2 25 -65 25 l-65 0 0 40 0 40 75 0 c73 0 75
1 75 25 l0 25 -100 0 -100 0 0 -155z"/>
<path d="M3550 2395 l0 -155 25 0 c24 0 24 1 27 107 l3 106 74 -106 c59 -84
80 -107 98 -107 l23 0 0 155 0 155 -25 0 c-24 0 -24 -1 -27 -106 l-3 -106 -73
106 c-59 86 -78 106 -97 106 l-25 0 0 -155z"/>
<path d="M3840 2394 l0 -157 72 6 c110 9 162 58 162 150 0 103 -60 156 -176
157 l-58 0 0 -156z m140 91 c33 -17 53 -70 43 -116 -8 -41 -56 -79 -99 -79
l-34 0 0 105 0 105 30 0 c17 0 44 -7 60 -15z"/>
</g>
</svg>
